#!OML:ASF E:\emotionWalksFemale\Project 1\Capture day 1\Session 1\Female1.ASF
:FULLY-SPECIFIED
:DEGREES
954
root 9.2679 15.4997 -2.74349 179.613 -7.62795 -181.678
lowerback 6.43061 -2.19598 -1.68616
upperback -4.44916 -3.13273 1.04627
thorax -8.14621 -1.44164 2.47047
lowerneck -7.31101 -0.795026 -4.17968
upperneck 8.47547 -1.08739 4.19421
head 4.18014 -0.510874 2.10673
rclavicle -2.37548e-014 -1.63003e-014
rhumerus -44.7275 11.8892 -79.4276
rradius 87.3923
rwrist 2.35991
rhand -17.2442 -49.2084
rfingers 7.12502
rthumb -171 -258.996
lclavicle -2.37548e-014 -1.63003e-014
lhumerus -41.642 -12.2416 90.7373
lradius 81.6583
lwrist 3.53773
lhand -3.50458 -33.223
lfingers 7.12502
lthumb 22.2296 -4.48139
rfemur -19.3052 13.9796 20.6204
rtibia 24.1475
rfoot -6.41656 -27.5294
rtoes 3.93131
lfemur 7.81433 -0.431927 -22.5574
ltibia 40.1894
lfoot 6.62116 -3.06621
ltoes -14.6695
955
root 9.28833 15.5051 -2.86499 179.369 -7.47137 -181.239
lowerback 6.69427 -2.18428 -1.28987
upperback -4.44509 -3.07068 1.16351
thorax -8.31262 -1.42638 2.37814
lowerneck -7.25866 -0.781058 -3.87465
upperneck 8.52699 -1.07447 3.86507
head 4.17752 -0.510577 1.9377
rclavicle 1.01877e-014 1.19271e-015
rhumerus -44.7026 12.301 -79.5969
rradius 87.0963
rwrist 2.0165
rhand -17.4712 -48.9675
rfingers 7.12502
rthumb -171.219 -258.765
lclavicle 1.01877e-014 1.19271e-015
lhumerus -42.3249 -12.494 91.0098
lradius 82.2775
lwrist 3.36644
lhand -3.36136 -33.4122
lfingers 7.12502
lthumb 22.3671 -4.68705
rfemur -18.5171 13.2293 21.5913
rtibia 24.0156
rfoot -6.13524 -26.6017
rtoes 3.57772
lfemur 7.04922 -0.190605 -21.6862
ltibia 42.3146
lfoot 7.96603 -3.96057
ltoes -15.1519
956
root 9.31336 15.5151 -2.98674 179.218 -7.50382 -180.877
lowerback 6.93212 -2.21369 -0.959685
upperback -4.4471 -3.0708 1.24943
thorax -8.46621 -1.43959 2.29686
lowerneck -7.45639 -0.780677 -3.92048
upperneck 9.10386 -1.11059 4.14241
head 3.9809 -0.502731 1.84075
rclavicle -5.1684e-015 -9.93923e-015
rhumerus -44.5873 12.8014 -79.7961
rradius 86.6526
rwrist 1.71339
rhand -17.8627 -48.549
rfingers 7.12502
rthumb -171.597 -258.362
lclavicle -5.1684e-015 -9.93923e-015
lhumerus -42.8111 -12.8356 91.2613
lradius 82.7821
lwrist 3.3777
lhand -3.15403 -33.4011
lfingers 7.12502
lthumb 22.5661 -4.70001
rfemur -17.7877 12.5499 22.3913
rtibia 23.8231
rfoot -6.23415 -25.9825
rtoes 4.24433
lfemur 6.16759 -0.162668 -20.9242
ltibia 44.4465
lfoot 9.06711 -4.76712
ltoes -15.7124
957
root 9.33301 15.5215 -3.11059 179.019 -7.38388 -180.619
lowerback 7.09112 -2.15757 -0.633041
upperback -4.3456 -2.95354 1.27167
thorax -8.46916 -1.39844 2.12555
lowerneck -7.66092 -0.867242 -3.97414
upperneck 9.17358 -1.22054 4.20184
head 4.04135 -0.552777 1.86138
rclavicle -3.00662e-014 1.11319e-014
rhumerus -44.2753 12.9613 -79.7728
rradius 86.0995
rwrist 2.1213
rhand -17.9535 -48.8073
rfingers 7.12502
rthumb -171.685 -258.624
lclavicle -3.00662e-014 1.11319e-014
lhumerus -43.0552 -13.4242 91.5536
lradius 83.086
lwrist 3.57897
lhand -3.41146 -33.3986
lfingers 7.12502
lthumb 22.319 -4.66763
rfemur -17.0146 11.9201 23.0576
rtibia 23.6257
rfoot -6.74028 -25.3344
rtoes 5.9073
lfemur 5.32661 -0.101568 -20.3409
ltibia 46.4872
lfoot 9.89667 -5.37512
ltoes -15.1296
958
root 9.35379 15.5285 -3.23532 178.989 -7.08882 -180.362
lowerback 7.0573 -2.04489 -0.384627
upperback -4.33739 -2.77566 1.2915
thorax -8.45762 -1.3263 1.98082
lowerneck -7.79002 -0.910296 -3.87702
upperneck 9.29108 -1.28548 4.15382
head 4.10048 -0.583097 1.82697
rclavicle -4.82053e-015 -6.75868e-015
rhumerus -44.1017 12.9389 -79.7626
rradius 85.5717
rwrist 2.83345
rhand -17.686 -49.4036
rfingers 7.12502
rthumb -171.427 -259.21
lclavicle -4.82053e-015 -6.75868e-015
lhumerus -43.5782 -13.9815 91.8251
lradius 83.4881
lwrist 3.69326
lhand -3.51181 -33.9651
lfingers 7.12502
lthumb 22.2227 -5.22262
rfemur -16.4906 11.5447 23.6643
rtibia 23.499
rfoot -7.33138 -24.7694
rtoes 7.67617
lfemur 4.22966 0.0293393 -19.8228
ltibia 48.4113
lfoot 11.0356 -5.60186
ltoes -13.2554
959
root 9.37287 15.5399 -3.35703 179.148 -7.13025 -180.12
lowerback 6.91565 -2.05692 -0.166623
upperback -4.47301 -2.77659 1.3304
thorax -8.53003 -1.34153 1.89884
lowerneck -7.66758 -0.879465 -3.83397
upperneck 9.39106 -1.26674 4.18909
head 4.10962 -0.574664 1.83222
rclavicle -2.68359e-015 1.43125e-014
rhumerus -44.1918 13.1071 -79.8605
rradius 85.0583
rwrist 3.24469
rhand -17.9311 -48.7505
rfingers 7.12502
rthumb -171.663 -258.566
lclavicle -2.68359e-015 1.43125e-014
lhumerus -44.4107 -14.342 92.1215
lradius 84.1313
lwrist 3.7825
lhand -4.87697 -33.556
lfingers 7.12502
lthumb 20.9116 -4.66319
rfemur -16.1951 11.1305 24.1306
rtibia 23.454
rfoot -7.89691 -24.4479
rtoes 8.62806
lfemur 2.88687 -0.207686 -19.4447
ltibia 50.2603
lfoot 12.5655 -5.70673
ltoes -12.2041
960
root 9.39033 15.543 -3.47307 179.121 -7.11724 -179.944
lowerback 6.93352 -2.04193 0.0103916
upperback -4.47735 -2.73558 1.38261
thorax -8.55223 -1.33074 1.85046
lowerneck -7.54539 -0.921769 -4.08619
upperneck 9.30001 -1.31723 4.39113
head 4.06636 -0.599236 1.93266
rclavicle 1.04362e-015 5.56597e-015
rhumerus -44.1851 13.3127 -79.8606
rradius 84.552
rwrist 3.58041
rhand -18.4269 -47.8952
rfingers 7.12502
rthumb -172.142 -257.729
lclavicle 1.04362e-015 5.56597e-015
lhumerus -44.9671 -14.6415 92.5183
lradius 84.6489
lwrist 3.92731
lhand -4.04324 -33.383
lfingers 7.12502
lthumb 21.7124 -4.58065
rfemur -15.7314 10.6614 24.5896
rtibia 23.4846
rfoot -8.29732 -24.0692
rtoes 8.61305
lfemur 1.85171 -0.366348 -19.1144
ltibia 52.0345
lfoot 13.8349 -5.91994
ltoes -11.0669
